<mxfile host="app.diagrams.net" modified="2021-01-07T17:45:08.315Z" agent="5.0 (Windows NT 10.0; Win64; x64) AppleWebKit/537.36 (KHTML, like Gecko) Chrome/87.0.4280.88 Safari/537.36 Edg/87.0.664.66" etag="2ASdj9_Er7zmXekOpP2N" version="14.1.8" type="github">
  <diagram id="ZsBfRqcbH99QROAvJv4S" name="Page-1">
    <mxGraphModel dx="559" dy="723" grid="1" gridSize="10" guides="1" tooltips="1" connect="1" arrows="1" fold="1" page="1" pageScale="1" pageWidth="827" pageHeight="1169" math="0" shadow="0">
      <root>
        <mxCell id="0" />
        <mxCell id="1" parent="0" />
        <mxCell id="gZ8JV7jaEIuzKvq_sZsB-1" value="" style="rounded=0;whiteSpace=wrap;html=1;" vertex="1" parent="1">
          <mxGeometry x="100" y="190" width="140" height="150" as="geometry" />
        </mxCell>
        <mxCell id="gZ8JV7jaEIuzKvq_sZsB-2" value="헤더+메뉴&lt;br&gt;/template/header.jsp" style="rounded=0;whiteSpace=wrap;html=1;fillColor=#f8cecc;strokeColor=#b85450;" vertex="1" parent="1">
          <mxGeometry x="110" y="220" width="120" height="30" as="geometry" />
        </mxCell>
        <mxCell id="gZ8JV7jaEIuzKvq_sZsB-3" value="배너&lt;br&gt;/template/banner.jsp" style="rounded=0;whiteSpace=wrap;html=1;fillColor=#d5e8d4;strokeColor=#82b366;" vertex="1" parent="1">
          <mxGeometry x="110" y="260" width="120" height="30" as="geometry" />
        </mxCell>
        <mxCell id="gZ8JV7jaEIuzKvq_sZsB-4" value="푸터" style="rounded=0;whiteSpace=wrap;html=1;fillColor=#dae8fc;strokeColor=#6c8ebf;" vertex="1" parent="1">
          <mxGeometry x="110" y="300" width="120" height="30" as="geometry" />
        </mxCell>
        <mxCell id="gZ8JV7jaEIuzKvq_sZsB-5" value="템플릿 페이지" style="text;html=1;strokeColor=none;fillColor=none;align=center;verticalAlign=middle;whiteSpace=wrap;rounded=0;" vertex="1" parent="1">
          <mxGeometry x="130" y="195" width="80" height="20" as="geometry" />
        </mxCell>
        <mxCell id="gZ8JV7jaEIuzKvq_sZsB-6" value="템플릿 페이지에서는 &lt;br&gt;절대경로만 사용가능&lt;br&gt;어느 페이지에 붙어서&lt;br&gt;실행될 지 모르기 때문!" style="text;html=1;strokeColor=none;fillColor=none;align=center;verticalAlign=middle;whiteSpace=wrap;rounded=0;" vertex="1" parent="1">
          <mxGeometry x="100" y="120" width="140" height="64" as="geometry" />
        </mxCell>
      </root>
    </mxGraphModel>
  </diagram>
</mxfile>
